<?xml version="1.0" encoding="UTF-8"?><svg id="Layer_1" xmlns="http://www.w3.org/2000/svg" viewBox="0 0 1470 510"><defs><style>.cls-1{stroke-width:0px;}</style></defs><path class="cls-1" d="m142.08,139.41v18.81c20.66-.03,106.37-1.69,75.26,35.68-27.16,32.63-145.01,69.95-107.75,154.22,43.25,97.82,232.79,70.09,232.79-73.21,0-70.03-49.25-135.49-200.3-135.49Zm-.49,192.82c0-73.43,137.87-136.4,88.18-170.08,64.88,20.33,79.73,80.89,67.82,136.82-25.64,120.43-156,102.88-156,33.26Z"/><path class="cls-1" d="m443.94,268.84h87.89v19.03h-66.5v40.59h59.26v19.03h-59.26v56.36h-21.38v-135Z"/><path class="cls-1" d="m537.47,354.74c0-29.54,22.47-51.1,51.28-51.1s51.1,21.56,51.1,51.1-23.01,51.28-51.1,51.28-51.28-21.74-51.28-51.28Zm81.18,0c0-18.48-12.87-32.07-29.9-32.07s-29.9,13.59-29.9,32.07,12.68,32.26,29.9,32.26,29.9-13.77,29.9-32.26Z"/><path class="cls-1" d="m652.8,366.33v-60.52h20.48v58.71c0,13.59,8.88,22.47,21.56,22.47s21.93-9.06,21.93-23.38v-57.81h20.3v98.03h-19.39v-12.14c-5.44,9.24-15.58,14.32-27.91,14.32-22.29,0-36.97-16.13-36.97-39.68Z"/><path class="cls-1" d="m753.52,305.81h19.57v11.96c5.62-9.24,15.58-14.13,27.73-14.13,21.38,0,36.97,15.22,36.97,36.79v63.42h-20.29v-57.81c0-14.5-8.88-23.38-21.74-23.38s-21.75,8.88-21.75,23.38v57.81h-20.48v-98.03Z"/><path class="cls-1" d="m850.63,354.74c0-28.99,21.2-51.1,49.11-51.1,13.59,0,24.64,5.07,32.07,13.59v-48.38h20.3v135h-19.39v-12.68c-7.25,9.6-19.39,14.86-32.8,14.86-28.27,0-49.29-22.29-49.29-51.28Zm81.18,0c0-18.48-12.86-32.07-29.9-32.07s-29.9,13.59-29.9,32.07,12.5,32.26,29.9,32.26,29.9-13.59,29.9-32.26Z"/><path class="cls-1" d="m965,377.93c0-41.56,64.33-27.06,64.33-40.05h0c0-9.6-7.79-16.49-19.57-16.49-10.87,0-19.39,6.16-23.19,15.22l-17.03-8.52c5.62-14.32,22.11-24.46,40.77-24.46,23.19,0,39.5,13.95,39.5,34.25v65.96h-19.57v-11.42c-7.43,8.7-18.3,13.59-31.89,13.59-19.93,0-33.34-11.05-33.34-28.09Zm36.6,11.54c33.46,0,27.73-35.86,27.73-35.86-6.87,10.91-42.95,1.21-42.95,23.59,0,7.43,6.34,12.27,15.22,12.27Z"/><path class="cls-1" d="m1074.32,371.77v-47.48h-17.21v-18.48h2.72c9.06,0,14.5-5.62,14.5-14.86v-7.61h20.48v22.47h22.29v18.48h-22.29v46.57c0,9.97,4.53,15.95,16.31,15.95,1.81,0,4.35-.18,6.71-.54v17.58c-3.26.54-7.79,1.09-11.05,1.09-20.66,0-32.44-12.14-32.44-33.16Z"/><path class="cls-1" d="m1131.9,268.84h20.48v20.48h-20.48v-20.48Zm0,36.97h20.48v98.03h-20.48v-98.03Z"/><path class="cls-1" d="m1164.86,354.74c0-29.54,22.47-51.1,51.28-51.1s51.1,21.56,51.1,51.1-23.01,51.28-51.1,51.28-51.28-21.74-51.28-51.28Zm81.18,0c0-18.48-12.86-32.07-29.9-32.07s-29.9,13.59-29.9,32.07,12.68,32.26,29.9,32.26,29.9-13.77,29.9-32.26Z"/><path class="cls-1" d="m1279.79,305.81h19.57v11.96c5.62-9.24,15.58-14.13,27.73-14.13,21.38,0,36.97,15.22,36.97,36.79v63.42h-20.29v-57.81c0-14.5-8.88-23.38-21.74-23.38s-21.74,8.88-21.74,23.38v57.81h-20.48v-98.03Z"/><path class="cls-1" d="m443.94,103.84h44.21c42.04,0,69.04,27.18,69.04,67.41s-27.18,67.59-69.04,67.59h-44.21V103.84Zm44.58,115.97c28.63,0,47.11-18.85,47.11-48.56s-18.48-48.38-47.11-48.38h-23.19v96.95h23.19Z"/><path class="cls-1" d="m443.94,103.84h44.21c42.04,0,69.04,27.18,69.04,67.41s-27.18,67.59-69.04,67.59h-44.21V103.84Zm44.58,115.97c28.63,0,47.11-18.85,47.11-48.56s-18.48-48.38-47.11-48.38h-23.19v96.95h23.19Z"/><path class="cls-1" d="m572.31,140.81h19.57v12.5c5.07-9.79,14.13-13.77,26.09-13.77h5.98v18.66h-8.52c-13.59,0-22.65,8.7-22.65,24.1v56.54h-20.48v-98.03Z"/><path class="cls-1" d="m626.35,189.74c0-29.54,22.47-51.1,51.28-51.1s51.1,21.56,51.1,51.1-23.01,51.28-51.1,51.28-51.28-21.74-51.28-51.28Zm81.18,0c0-18.48-12.87-32.07-29.9-32.07s-29.9,13.59-29.9,32.07,12.68,32.26,29.9,32.26,29.9-13.77,29.9-32.26Z"/><path class="cls-1" d="m735.44,213.66l15.77-7.43c5.26,11.23,15.04,18.12,26.46,18.12,9.6,0,16.31-4.71,16.31-12.14s-6.88-10.15-13.05-11.78l-15.4-4.35c-17.03-4.89-25.19-14.86-25.19-28.09,0-17.58,14.86-29.36,34.97-29.36,17.94,0,32.98,9.24,38.78,25.01l-15.76,7.43c-3.99-9.42-12.87-15.4-23.19-15.4-9.06,0-14.68,4.53-14.68,11.42s6.34,9.79,12.5,11.6l15.95,4.71c16.13,4.71,25.19,14.68,25.19,28.27,0,17.4-14.68,29.36-36.42,29.36-20.11,0-36.24-10.69-42.22-27.36Z"/><path class="cls-1" d="m824.31,189.74c0-29.54,22.47-51.1,51.28-51.1s51.1,21.56,51.1,51.1-23.01,51.28-51.1,51.28-51.28-21.74-51.28-51.28Zm81.18,0c0-18.48-12.87-32.07-29.9-32.07s-29.9,13.59-29.9,32.07,12.68,32.26,29.9,32.26,29.9-13.77,29.9-32.26Z"/><path class="cls-1" d="m933.4,213.66l15.77-7.43c5.26,11.23,15.04,18.12,26.46,18.12,9.6,0,16.31-4.71,16.31-12.14s-6.88-10.15-13.05-11.78l-15.4-4.35c-17.03-4.89-25.19-14.86-25.19-28.09,0-17.58,14.86-29.36,34.97-29.36,17.94,0,32.98,9.24,38.78,25.01l-15.76,7.43c-3.99-9.42-12.87-15.4-23.19-15.4-9.06,0-14.68,4.53-14.68,11.42s6.34,9.79,12.5,11.6l15.95,4.71c16.13,4.71,25.19,14.68,25.19,28.27,0,17.4-14.68,29.36-36.42,29.36-20.11,0-36.24-10.69-42.22-27.36Z"/></svg>