<?xml version="1.0" encoding="UTF-8" standalone="no"?>
<!-- Created with Inkscape (http://www.inkscape.org/) -->

<svg
   width="214.88702mm"
   height="48.427921mm"
   viewBox="0 0 214.88702 48.427921"
   version="1.1"
   id="svg1"
   inkscape:version="1.4.3 (1:1.4.3+202512261035+0d15f75042)"
   sodipodi:docname="reclaim-arabic-logo.svg"
   xmlns:inkscape="http://www.inkscape.org/namespaces/inkscape"
   xmlns:sodipodi="http://sodipodi.sourceforge.net/DTD/sodipodi-0.dtd"
   xmlns="http://www.w3.org/2000/svg"
   xmlns:svg="http://www.w3.org/2000/svg">
  <sodipodi:namedview
     id="namedview1"
     pagecolor="#2d2d2d"
     bordercolor="#000000"
     borderopacity="0.25"
     inkscape:showpageshadow="2"
     inkscape:pageopacity="0.0"
     inkscape:pagecheckerboard="0"
     inkscape:deskcolor="#d1d1d1"
     inkscape:document-units="mm"
     inkscape:zoom="1.0075547"
     inkscape:cx="345.88692"
     inkscape:cy="205.94415"
     inkscape:window-width="2560"
     inkscape:window-height="1403"
     inkscape:window-x="1920"
     inkscape:window-y="0"
     inkscape:window-maximized="1"
     inkscape:current-layer="layer1" />
  <defs
     id="defs1">
    <inkscape:path-effect
       effect="perspective-envelope"
       up_left_point="40,-104.7135"
       up_right_point="120,-104.7135"
       down_left_point="3.90625,32.5625"
       down_right_point="98.363658,32.5625"
       id="path-effect67"
       is_visible="true"
       lpeversion="1"
       deform_type="perspective"
       horizontal_mirror="false"
       vertical_mirror="false"
       overflow_perspective="false" />
  </defs>
  <g
     inkscape:label="Layer 1"
     inkscape:groupmode="layer"
     id="layer1"
     transform="translate(-13.49375,-93.927085)">
    <g
       id="g1">
      <path
         d="m 115.98337,100.37528 c 0,0.58785 -0.11068,1.1388 -0.32958,1.65285 -0.22014,0.5116 -0.52144,0.95187 -0.90514,1.31835 -0.38123,0.36771 -0.82888,0.66164 -1.34294,0.88054 -0.51159,0.22013 -1.04779,0.32958 -1.60858,0.32958 -0.58784,0 -1.13018,-0.10945 -1.62825,-0.32958 -0.4993,-0.2189 -0.93957,-0.51283 -1.32326,-0.88054 -0.38124,-0.36648 -0.68131,-0.80675 -0.90022,-1.31835 -0.22013,-0.51405 -0.32958,-1.065 -0.32958,-1.65285 0,-0.586608 0.10945,-1.137559 0.32958,-1.652847 0.21891,-0.514054 0.51898,-0.955552 0.90022,-1.323263 0.38369,-0.366479 0.82396,-0.660403 1.32326,-0.880537 0.49807,-0.218905 1.04041,-0.329586 1.62825,-0.329586 0.56079,0 1.09699,0.110681 1.60858,0.329586 0.51406,0.220134 0.96171,0.514058 1.34294,0.880537 0.3837,0.367711 0.685,0.809209 0.90514,1.323263 0.2189,0.515288 0.32958,1.066239 0.32958,1.652847 z"
         id="path1"
         style="fill:#2d2d2d;stroke-width:0.314829" />
      <path
         d="m 106.30976,100.37528 c 0,0.58785 -0.11068,1.1388 -0.32958,1.65285 -0.22013,0.5116 -0.52144,0.95187 -0.90513,1.31835 -0.38124,0.36771 -0.82889,0.66164 -1.34294,0.88054 -0.5116,0.22013 -1.04779,0.32958 -1.60858,0.32958 -0.58785,0 -1.13019,-0.10945 -1.62826,-0.32958 -0.499296,-0.2189 -0.939563,-0.51283 -1.323261,-0.88054 -0.38124,-0.36648 -0.681309,-0.80675 -0.900215,-1.31835 -0.22013,-0.51405 -0.329586,-1.065 -0.329586,-1.65285 0,-0.586608 0.109456,-1.137559 0.329586,-1.652847 0.218906,-0.514054 0.518975,-0.955552 0.900215,-1.323263 0.383698,-0.366479 0.823965,-0.660403 1.323261,-0.880537 0.49807,-0.218905 1.04041,-0.329586 1.62826,-0.329586 0.56079,0 1.09698,0.110681 1.60858,0.329586 0.51405,0.220134 0.9617,0.514058 1.34294,0.880537 0.38369,0.367711 0.685,0.809209 0.90513,1.323263 0.2189,0.515288 0.32958,1.066239 0.32958,1.652847 z"
         id="path1-2"
         style="fill:#2d2d2d;stroke-width:0.314829" />
      <g
         fill="#2d2d2d"
         fill-opacity="1"
         id="g34"
         transform="matrix(0.35277777,0,0,0.35277777,-133.03643,-27.68506)"
         style="fill:#2d2d2d">
        <g
           transform="translate(720.44948,445.88015)"
           id="g33"
           style="fill:#2d2d2d">
          <g
             id="g32"
             style="fill:#2d2d2d">
            <path
               d="M 0,0 V -20.484375 H 25.078125 V 0 Z m 25.078125,0 v -20.484375 c 0.695313,0 1.253906,0.921875 1.671875,2.765625 0.425781,1.84375 0.640625,4.296875 0.640625,7.359375 0,3.148437 -0.214844,5.664063 -0.640625,7.546875 C 26.332031,-0.9375 25.773438,0 25.078125,0 Z M 0,0 c -0.6875,0 -1.238281,-0.9375 -1.65625,-2.8125 -0.425781,-1.882812 -0.640625,-4.398438 -0.640625,-7.546875 0,-3.0625 0.214844,-5.515625 0.640625,-7.359375 C -1.238281,-19.5625 -0.6875,-20.484375 0,-20.484375 Z m 0,0"
               id="path31"
               style="fill:#2d2d2d" />
          </g>
        </g>
      </g>
      <g
         fill="#2d2d2d"
         fill-opacity="1"
         id="g37"
         transform="matrix(0.35277777,0,0,0.35277777,-127.74476,-27.68506)"
         style="fill:#2d2d2d">
        <g
           transform="translate(745.53138,445.88015)"
           id="g36"
           style="fill:#2d2d2d">
          <g
             id="g35"
             style="fill:#2d2d2d">
            <path
               d="M -19.5,0 V -20.484375 H 25.078125 V 0 Z m 44.578125,0 v -20.484375 c 0.695313,0 1.253906,0.921875 1.671875,2.765625 0.425781,1.84375 0.640625,4.296875 0.640625,7.359375 0,3.148437 -0.214844,5.664063 -0.640625,7.546875 C 26.332031,-0.9375 25.773438,0 25.078125,0 Z M -19.5,0 c -0.6875,0 -1.238281,-0.9375 -1.65625,-2.8125 -0.425781,-1.882812 -0.640625,-4.398438 -0.640625,-7.546875 0,-3.0625 0.214844,-5.515625 0.640625,-7.359375 0.417969,-1.84375 0.96875,-2.765625 1.65625,-2.765625 z"
               id="path34"
               sodipodi:nodetypes="ccccccccsccccsccc"
               style="fill:#2d2d2d" />
          </g>
        </g>
      </g>
      <g
         fill="#2d2d2d"
         fill-opacity="1"
         id="g40"
         transform="matrix(0.35277777,0,0,0.35277777,-127.74476,-27.68506)"
         style="fill:#2d2d2d">
        <g
           transform="translate(770.61328,445.88015)"
           id="g39"
           style="fill:#2d2d2d">
          <g
             id="g38"
             style="fill:#2d2d2d">
            <path
               d="M 0,0 V -20.484375 H 25.078125 V 0 Z m 25.078125,0 v -20.484375 c 0.695313,0 1.253906,0.921875 1.671875,2.765625 0.425781,1.84375 0.640625,4.296875 0.640625,7.359375 0,3.148437 -0.214844,5.664063 -0.640625,7.546875 C 26.332031,-0.9375 25.773438,0 25.078125,0 Z M 0,0 c -0.6875,0 -1.238281,-0.9375 -1.65625,-2.8125 -0.425781,-1.882812 -0.640625,-4.398438 -0.640625,-7.546875 0,-3.0625 0.214844,-5.515625 0.640625,-7.359375 C -1.238281,-19.5625 -0.6875,-20.484375 0,-20.484375 Z m 0,0"
               id="path37"
               style="fill:#2d2d2d" />
          </g>
        </g>
      </g>
      <g
         fill="#2d2d2d"
         fill-opacity="1"
         id="g43"
         transform="matrix(0.64203681,0,0,0.35277777,-361.59644,-27.68506)"
         style="fill:#2d2d2d">
        <g
           transform="translate(795.69518,445.88015)"
           id="g42"
           style="fill:#2d2d2d">
          <g
             id="g41"
             style="fill:#2d2d2d">
            <path
               d="M 0,0 V -20.484375 H 25.078125 V 0 Z m 25.078125,0 v -20.484375 c 0.695313,0 1.253906,0.921875 1.671875,2.765625 0.425781,1.84375 0.640625,4.296875 0.640625,7.359375 0,3.148437 -0.214844,5.664063 -0.640625,7.546875 C 26.332031,-0.9375 25.773438,0 25.078125,0 Z M 0,0 c -0.6875,0 -1.238281,-0.9375 -1.65625,-2.8125 -0.425781,-1.882812 -0.640625,-4.398438 -0.640625,-7.546875 0,-3.0625 0.214844,-5.515625 0.640625,-7.359375 C -1.238281,-19.5625 -0.6875,-20.484375 0,-20.484375 Z m 0,0"
               id="path40"
               style="fill:#2d2d2d" />
          </g>
        </g>
      </g>
      <g
         fill="#2d2d2d"
         fill-opacity="1"
         id="g46"
         transform="matrix(0.35277777,0,0,0.35277777,-123.51143,-27.68506)"
         style="fill:#2d2d2d">
        <g
           transform="translate(820.77708,445.88015)"
           id="g45"
           style="fill:#2d2d2d">
          <g
             id="g44"
             style="fill:#2d2d2d">
            <path
               d="M 0,0 V -20.484375 H 25.078125 V 0 Z m 25.078125,0 v -20.484375 c 0.695313,0 1.253906,0.921875 1.671875,2.765625 0.425781,1.84375 0.640625,4.296875 0.640625,7.359375 0,3.148437 -0.214844,5.664063 -0.640625,7.546875 C 26.332031,-0.9375 25.773438,0 25.078125,0 Z M 0,0 c -0.6875,0 -1.238281,-0.9375 -1.65625,-2.8125 -0.425781,-1.882812 -0.640625,-4.398438 -0.640625,-7.546875 0,-3.0625 0.214844,-5.515625 0.640625,-7.359375 C -1.238281,-19.5625 -0.6875,-20.484375 0,-20.484375 Z m 0,0"
               id="path43"
               style="fill:#2d2d2d" />
          </g>
        </g>
      </g>
      <g
         fill="#2d2d2d"
         fill-opacity="1"
         id="g49"
         transform="matrix(0.35277777,0,0,0.35277777,-126.15726,-27.68506)"
         style="fill:#2d2d2d">
        <g
           transform="translate(845.85897,445.88015)"
           id="g48"
           style="fill:#2d2d2d">
          <g
             id="g47"
             style="fill:#2d2d2d">
            <path
               id="path46"
               d="m 89.638585,-59.775171 v 16.466308 h 0.0015 v 13.277344 c 0,3.449219 -0.97998,6.016113 -2.937011,7.703613 -1.960937,1.6875 -4.168457,2.53125 -6.625488,2.53125 -2.21875,0 -4.308106,-0.723144 -6.265137,-2.172363 -1.173885,-0.872229 -2.049546,-1.993542 -2.62793,-3.363281 0.02282,-0.597211 0.03369,-1.204855 0.03369,-1.823731 v -26.233886 h -17.71875 v 23.358398 c 0,3.449219 -0.979981,6.016113 -2.937012,7.703613 -1.949219,1.6875 -4.152344,2.53125 -6.609375,2.53125 -2.230469,0 -4.304199,-0.723144 -6.218262,-2.172363 -1.386672,-1.053418 -2.351721,-2.47067 -2.893066,-4.249512 0.09466,-1.231234 0.14209,-2.501964 0.14209,-3.812988 v -17.71875 H 17.26505 v 17.71875 c 0,2.460938 -0.292481,4.398438 -0.874512,5.8125 -0.574219,1.417969 -1.647949,2.399415 -3.218262,2.938477 -1.574219,0.53125 -3.8554686,0.796875 -6.8437496,0.796875 H 4.0142561e-4 c -0.68749999561,0 -1.23876922561,0.921875 -1.65673822561,2.765625 -0.425781,1.84375 -0.6401368,4.296875 -0.6401368,7.359375 0,3.1484366 0.2143558,5.6640625 0.6401368,7.5468745 0.417969,1.87500003 0.96923823,2.81250001965 1.65673822561,2.81250001965 H 6.3285264 c 6.1328126,0 11.3315426,-1.16503851965 15.5932616,-3.50097651965 2.750418,-1.5139913 5.077797,-3.4749472 6.978516,-5.8842773 2.257914,3.1361274 4.950399,5.462857 8.084472,6.9785155 3.34375,1.60546905 6.851075,2.40673831965 10.530762,2.40673831965 3.988281,0 7.785156,-0.95751926965 11.390625,-2.87548821965 2.545404,-1.3527634 4.767418,-3.233261 6.665039,-5.6396485 2.124338,2.6996993 4.621074,4.7364469 7.491211,6.1083984 3.375,1.60546905 6.863769,2.40673831965 10.469238,2.40673831965 3.988281,0 7.785156,-0.95751926965 11.390625,-2.87548821965 3.601563,-1.914062 6.577144,-4.882812 8.920894,-8.9062503 2.34375,-4.03125 3.51563,-9.15625 3.51563,-15.375 v -16.152832 h 6.63867 v -16.466308 z"
               style="fill:#2d2d2d" />
          </g>
        </g>
      </g>
      <g
         fill="#2d2d2d"
         fill-opacity="1"
         id="g52"
         transform="matrix(0.35277777,0,0,0.35277777,-121.92393,-27.68506)"
         style="fill:#2d2d2d">
        <g
           transform="translate(959.41786,445.88015)"
           id="g51"
           style="fill:#2d2d2d">
          <g
             id="g50"
             style="fill:#2d2d2d">
            <path
               id="path49"
               d="M 8.5157295,-99.640894 V -83.174585 7.0751965e-4 H 26.234479 V -83.174585 h 7.337403 v -16.466309 h -7.337403 z"
               style="fill:#2d2d2d" />
          </g>
        </g>
      </g>
      <g
         fill="#0891A8"
         fill-opacity="1"
         id="g55"
         transform="matrix(0.35277777,0,0,0.35277777,-127.74476,-29.032072)">
        <g
           transform="translate(366.39239,449.26459)"
           id="g54">
          <g
             id="g53">
            <path
               d="m 64.5625,-13.046875 c 0,2.148437 -0.40625,4.164063 -1.21875,6.046875 -0.804688,1.875 -1.902344,3.484375 -3.296875,4.828125 -1.398437,1.34375 -3.03125,2.414063 -4.90625,3.21875 -1.875,0.800781 -3.835937,1.203125 -5.875,1.203125 -2.148437,0 -4.132813,-0.402344 -5.953125,-1.203125 -1.824219,-0.804687 -3.433594,-1.875 -4.828125,-3.21875 -1.398437,-1.34375 -2.5,-2.953125 -3.3125,-4.828125 -0.804687,-1.882812 -1.203125,-3.898438 -1.203125,-6.046875 0,-2.144531 0.398438,-4.15625 1.203125,-6.03125 0.8125,-1.875 1.914063,-3.484375 3.3125,-4.828125 1.394531,-1.34375 3.003906,-2.414062 4.828125,-3.21875 1.820312,-0.8125 3.804688,-1.21875 5.953125,-1.21875 2.039063,0 4,0.40625 5.875,1.21875 1.875,0.804688 3.507813,1.875 4.90625,3.21875 1.394531,1.34375 2.492187,2.953125 3.296875,4.828125 0.8125,1.875 1.21875,3.886719 1.21875,6.03125 z m 0,0"
               id="path52" />
          </g>
        </g>
      </g>
      <g
         fill="#2d2d2d"
         fill-opacity="1"
         id="g58"
         transform="matrix(0.45196032,0,0,0.35277777,-197.93739,-41.985064)"
         style="fill:#2d2d2d">
        <g
           transform="translate(605.11932,446.50687)"
           id="g57"
           style="fill:#2d2d2d">
          <g
             id="g56"
             style="fill:#2d2d2d">
            <path
               id="path55"
               d="m -8.1958862,-20.484899 c -0.6875,0 -1.2376514,0.921875 -1.6556204,2.765625 -0.4257814,1.84375 -0.6414384,4.296875 -0.6414384,7.359375 0,3.1484368 0.215657,5.6640627 0.6414384,7.5468747 0.417969,1.87500004 0.9681204,2.8125000269 1.6556204,2.8125000269 H 6.0635206 L 10.645125,-20.484899 Z"
               sodipodi:nodetypes="scscsccs"
               style="fill:#2d2d2d" />
          </g>
        </g>
      </g>
      <g
         fill="#2d2d2d"
         fill-opacity="1"
         id="g67"
         transform="matrix(0.42811212,0,0,0.35277777,-166.9406,-28.639111)"
         style="fill:#2d2d2d">
        <g
           transform="translate(505.37366,446.50687)"
           id="g66"
           style="fill:#2d2d2d">
          <g
             id="g65"
             style="fill:#2d2d2d">
            <path
               id="path64"
               d="m 52.815015,-4.3042482 c 1.83927,-8.7396288 2.375104,-16.3821698 1.647185,-22.9818088 -0.711332,-6.493229 -2.619857,-11.818033 -5.707901,-16.013507 -3.059839,-4.153031 -7.239661,-7.111215 -12.551112,-8.900067 l 6.016621,-12.481147 c 4.387316,-9.101245 14.048374,0.377804 18.273863,6.192248 4.288987,5.892025 7.081888,13.303346 8.358268,22.315417 1.31263,9.204534 0.823025,19.793388 -1.537884,31.8688648 z m -39.215452,0 5.699816,-21.6782138 H 66.886411 L 62.417113,-4.3042482 Z M 60.098632,-83.058833 c -1.425732,0 -2.688493,-0.461685 -3.786334,-1.383421 -1.087815,-0.926519 -1.868566,-2.121466 -2.342852,-3.582363 -0.467575,-1.451976 -0.479804,-3.087112 -0.04242,-4.903057 l 1.680775,-6.978309 h 6.443652 l -1.504664,6.473688 c -0.202973,0.873274 -0.164994,1.611639 0.117482,2.214316 0.280041,0.603617 0.647491,0.905779 1.102021,0.905779 0.566724,0 1.203518,-0.432569 1.907884,-1.303103 0.704335,-0.87541 1.23065,-2.082675 1.580634,-3.625458 0.239707,-1.056662 0.380808,-2.181247 0.424461,-3.376508 0.04844,-1.18819 -0.02766,-2.175541 -0.234312,-2.960241 l 6.363034,-3.13599 c 0.283125,1.23934 0.425114,2.74258 0.422436,4.5128 0.0023,1.781822 -0.15996,3.436833 -0.492642,4.959939 -0.467978,2.142533 -1.301462,4.142744 -2.497799,6.001768 -1.203461,1.861063 -2.599215,3.359139 -4.186375,4.489978 -1.593101,1.127139 -3.244682,1.690182 -4.954981,1.690182 z m -10.604429,0 c -1.658031,0 -3.016988,-0.563043 -4.073713,-1.690182 -1.054827,-1.130839 -1.741538,-2.628915 -2.061271,-4.489978 -0.319335,-1.859024 -0.203246,-3.859235 0.342834,-6.001768 0.388204,-1.523106 0.992212,-3.178117 1.809456,-4.959939 0.812605,-1.77022 1.64924,-3.27346 2.513437,-4.5128 l 4.889736,3.13599 c -0.527048,0.7847 -1.059129,1.772051 -1.601547,2.960241 -0.544937,1.195261 -0.94762,2.319846 -1.208141,3.376508 -0.380375,1.542783 -0.41124,2.750048 -0.08972,3.625458 0.321056,0.870534 0.738728,1.303103 1.24504,1.303103 0.451653,0 0.976527,-0.302162 1.576795,-0.905779 0.59646,-0.602677 1.001123,-1.341042 1.211457,-2.214316 l 1.559234,-6.473688 h 6.443652 l -1.621952,6.978309 c -0.422075,1.815945 -1.213949,3.451081 -2.374503,4.903057 -1.168618,1.460897 -2.517838,2.655844 -4.049977,3.582363 -1.528308,0.921736 -3.032818,1.383421 -4.510817,1.383421 z M 69.764654,10.044618 C 73.036798,9.961338 75.660198,9.4882684 77.632397,8.6266694 79.607995,7.7624075 81.132683,6.4561737 82.209388,4.7119449 83.28668,2.983315 83.920469,0.79610934 84.531547,-1.8034045 L 99.139854,-63.946852 H 113.57469 L 99.072747,-1.8034045 C 97.543065,4.7515512 96.040341,10.610454 93.193432,15.638447 90.311082,20.720071 86.74346,24.726296 82.498233,27.627105 78.230207,30.556089 63.235025,32.202894 58.000706,32.5625 Z"
               transform="matrix(1.0990419,0,0,1,-58.435454,5.6383731)"
               sodipodi:nodetypes="ccccscccccccccsccsccscscsccccsccsscssccccscscsccsccscccsccscccc"
               style="fill:#2d2d2d" />
          </g>
        </g>
      </g>
      <path
         style="fill:#2d2d2d;stroke-width:0.252158"
         d="m 82.76345,122.37681 -2.354068,7.22666 h 25.915468 l 1.07654,-7.22643 z"
         id="path67-7"
         sodipodi:nodetypes="ccccc" />
      <rect
         style="fill:#2d2d2d;stroke-width:0.264583"
         id="rect68"
         width="0.020544633"
         height="0.051361579"
         x="113.2489"
         y="113.81765" />
      <path
         id="path28"
         d="m 109.55393,108.23703 v 5.80946 l 0.001,4.97061 c 1.8e-4,0.86816 -0.10869,1.55167 -0.32504,2.05052 -0.21773,0.50023 -0.59566,0.84646 -1.13585,1.03663 -0.54019,0.18741 -1.35289,0.28112 -2.43603,0.28112 h -2.23241 c -0.24253,0 -0.43701,0.32521 -0.58446,0.97565 -0.1502,0.65043 -0.22582,1.51584 -0.22582,2.59622 0,1.1107 0.0756,1.99816 0.22582,2.66237 0.14745,0.66146 0.34193,0.99219 0.58446,0.99219 h 2.23242 c 2.16352,-0.0248 3.99752,-0.45217 5.50096,-1.27899 0.53708,-0.29564 1.02848,-0.63891 1.47381,-1.0294 0.45477,0.40956 0.95765,0.76733 1.50844,1.07332 1.48828,0.82407 3.32934,1.23507 5.52317,1.23507 h 1.46038 c 0.24253,0 0.43701,-0.33073 0.58446,-0.99219 0.15021,-0.66421 0.22583,-1.55167 0.22583,-2.66237 0,-1.08038 -0.0756,-1.94579 -0.22583,-2.59622 -0.14745,-0.65044 -0.34193,-0.97565 -0.58446,-0.97565 h -1.46038 c -1.05833,0 -1.87309,-0.0937 -2.44222,-0.28112 -0.56638,-0.19017 -0.95068,-0.5364 -1.15187,-1.03663 -0.20257,-0.49885 -0.30334,-1.18236 -0.30334,-2.05052 v -4.97061 h 2.38021 v -5.80946 z"
         sodipodi:nodetypes="ccsccsscscsccccsscscssccscccc"
         style="fill:#2d2d2d;stroke-width:0.352778" />
    </g>
  </g>
</svg>
