<?xml version="1.0" encoding="UTF-8" standalone="no"?>
<svg
   width="810.60773"
   zoomAndPan="magnify"
   viewBox="0 0 607.9558 105.35893"
   height="140.47858"
   preserveAspectRatio="xMidYMid"
   version="1.0"
   id="svg25"
   sodipodi:docname="reclaim (1).svg"
   inkscape:version="1.4.3 (1:1.4.3+202512261035+0d15f75042)"
   xmlns:inkscape="http://www.inkscape.org/namespaces/inkscape"
   xmlns:sodipodi="http://sodipodi.sourceforge.net/DTD/sodipodi-0.dtd"
   xmlns="http://www.w3.org/2000/svg"
   xmlns:svg="http://www.w3.org/2000/svg">
  <sodipodi:namedview
     id="namedview25"
     pagecolor="#727272"
     bordercolor="#000000"
     borderopacity="0.25"
     inkscape:showpageshadow="2"
     inkscape:pageopacity="0.0"
     inkscape:pagecheckerboard="0"
     inkscape:deskcolor="#d1d1d1"
     inkscape:zoom="0.37024897"
     inkscape:cx="425.38944"
     inkscape:cy="58.069034"
     inkscape:window-width="2560"
     inkscape:window-height="1403"
     inkscape:window-x="1920"
     inkscape:window-y="0"
     inkscape:window-maximized="1"
     inkscape:current-layer="svg25" />
  <defs
     id="defs1">
    <g
       id="g1" />
  </defs>
  <g
     fill="#ffffff"
     fill-opacity="1"
     id="g4"
     transform="translate(-400.79816,-361.89106)">
    <g
       transform="translate(397.72003,465.14106)"
       id="g3">
      <g
         id="g2">
        <path
           d="M 24.90625,-52.890625 23.5,-53.71875 l -11.046875,8.109375 -9.375,-12.59375 11.1875,-8.390625 c 2.144531,-1.582031 4.40625,-2.769531 6.78125,-3.5625 2.382813,-0.800781 4.648437,-1.203125 6.796875,-1.203125 3.726562,0 6.988281,1.027344 9.78125,3.078125 2.800781,2.054688 4.484375,4.949219 5.046875,8.6875 H 45.1875 c 1.863281,-3.914062 4.472656,-6.851562 7.828125,-8.8125 3.363281,-1.96875 7.144531,-2.953125 11.34375,-2.953125 5.3125,0 9.625,1.65625 12.9375,4.96875 3.3125,3.3125 4.96875,7.90625 4.96875,13.78125 0,1.21875 -0.07422,2.414063 -0.21875,3.578125 -0.136719,1.167969 -0.390625,2.589844 -0.765625,4.265625 l -0.6875,3.078125 -18.75,1.390625 0.421875,-1.953125 c 0.269531,-1.394531 0.40625,-2.65625 0.40625,-3.78125 0,-2.707031 -0.746094,-4.851562 -2.234375,-6.4375 -1.492188,-1.582031 -3.730469,-2.375 -6.71875,-2.375 -3.730469,0 -6.695312,1.261719 -8.890625,3.78125 -2.1875,2.523438 -3.792969,6.109375 -4.8125,10.765625 L 34.96875,-16.78125 H 51.765625 V 0 H 3.921875 V -16.78125 H 17.34375 Z m 0,0"
           id="path1" />
      </g>
    </g>
  </g>
  <g
     fill="#ffffff"
     fill-opacity="1"
     id="g7"
     transform="translate(-400.79816,-361.89106)">
    <g
       transform="translate(477.46183,465.14106)"
       id="g6">
      <g
         id="g5">
        <path
           d="m 23.078125,-28.953125 c -0.179687,0.742187 -0.265625,1.53125 -0.265625,2.375 0,3.355469 1.28125,6.152344 3.84375,8.390625 2.5625,2.242188 5.941406,3.359375 10.140625,3.359375 4.382813,0 7.878906,-0.789063 10.484375,-2.375 2.613281,-1.59375 4.617188,-3.460937 6.015625,-5.609375 l 14,8.828125 c -1.125,1.867187 -2.601563,3.730469 -4.421875,5.59375 -1.8125,1.867187 -4.046875,3.570313 -6.703125,5.109375 -2.65625,1.53125 -5.78125,2.789062 -9.375,3.765625 -3.59375,0.976563 -7.765625,1.46875 -12.515625,1.46875 -4.292969,0 -8.234375,-0.671875 -11.828125,-2.015625 -3.59375,-1.351562 -6.671875,-3.21875 -9.234375,-5.59375 -2.5625,-2.382812 -4.570312,-5.234375 -6.015625,-8.546875 -1.449219,-3.3125 -2.171875,-6.972656 -2.171875,-10.984375 0,-6.34375 0.953125,-12.3125 2.859375,-17.90625 1.914063,-5.59375 4.691406,-10.488281 8.328125,-14.6875 3.644531,-4.195312 8.125,-7.507812 13.4375,-9.9375 5.320312,-2.425781 11.429688,-3.640625 18.328125,-3.640625 4.851563,0 9.070313,0.773437 12.65625,2.3125 3.59375,1.542969 6.554687,3.59375 8.890625,6.15625 2.332031,2.5625 4.082031,5.480469 5.25,8.75 1.164062,3.261719 1.75,6.617187 1.75,10.0625 0,1.125 -0.07422,2.273437 -0.21875,3.4375 -0.136719,1.167969 -0.390625,2.683594 -0.765625,4.546875 l -1.53125,7.140625 z M 45.1875,-55.40625 c -4.386719,0 -8.1875,1.101562 -11.40625,3.296875 -3.21875,2.1875 -5.621094,4.867187 -7.203125,8.03125 H 59.3125 c 0,-3.539063 -1.09375,-6.3125 -3.28125,-8.3125 -2.1875,-2.007813 -5.804688,-3.015625 -10.84375,-3.015625 z m 0,0"
           id="path4" />
      </g>
    </g>
  </g>
  <g
     fill="#ffffff"
     fill-opacity="1"
     id="g10"
     transform="translate(-400.79816,-361.89106)">
    <g
       transform="translate(557.21221,465.14106)"
       id="g9">
      <g
         id="g8">
        <path
           d="m 78.625,-25.46875 c -1.585938,8.210938 -5.339844,14.835938 -11.265625,19.875 -5.917969,5.03125 -13.820313,7.546875 -23.703125,7.546875 -5.136719,0 -9.917969,-0.792969 -14.34375,-2.375 -4.429688,-1.582031 -8.277344,-3.863281 -11.546875,-6.84375 -3.261719,-2.988281 -5.824219,-6.675781 -7.6875,-11.0625 -1.867187,-4.382813 -2.796875,-9.375 -2.796875,-14.96875 v -1.671875 c 0,-5.601562 0.929688,-10.640625 2.796875,-15.109375 1.863281,-4.476563 4.453125,-8.300781 7.765625,-11.46875 3.3125,-3.175781 7.179688,-5.601563 11.609375,-7.28125 4.425781,-1.6875 9.160156,-2.53125 14.203125,-2.53125 9.695312,0 17.550781,2.523437 23.5625,7.5625 6.019531,5.03125 9.820312,11.652344 11.40625,19.859375 l -17.34375,4.484375 c -0.5625,-4.101563 -2.339844,-7.644531 -5.328125,-10.625 C 52.972656,-53.066406 48.78125,-54.5625 43.375,-54.5625 c -2.523438,0 -4.902344,0.46875 -7.140625,1.40625 -2.242187,0.929688 -4.199219,2.257812 -5.875,3.984375 -1.679687,1.71875 -3.007813,3.820313 -3.984375,6.296875 -0.980469,2.46875 -1.46875,5.242188 -1.46875,8.3125 v 0.84375 c 0,3.085938 0.488281,5.8125 1.46875,8.1875 0.976562,2.375 2.304688,4.359375 3.984375,5.953125 1.675781,1.585937 3.632813,2.773437 5.875,3.5625 2.238281,0.792969 4.617187,1.1875 7.140625,1.1875 5.40625,0 9.53125,-1.347656 12.375,-4.046875 2.84375,-2.707031 4.6875,-6.347656 5.53125,-10.921875 z m 0,0"
           id="path7" />
      </g>
    </g>
  </g>
  <g
     fill="#ffffff"
     fill-opacity="1"
     id="g13"
     transform="translate(-400.79816,-361.89106)">
    <g
       transform="translate(636.95401,465.14106)"
       id="g12">
      <g
         id="g11">
        <path
           d="M 10.5,-16.78125 H 34.84375 V -81.140625 H 11.328125 V -97.9375 H 52.46875 v 81.15625 H 75.125 V 0 H 10.5 Z m 0,0"
           id="path10" />
      </g>
    </g>
  </g>
  <g
     fill="#ffffff"
     fill-opacity="1"
     id="g16"
     transform="translate(-400.79816,-361.89106)">
    <g
       transform="translate(716.69581,465.14106)"
       id="g15">
      <g
         id="g14">
        <path
           d="m 55.828125,-10.078125 c -1.867187,4.386719 -4.480469,7.492187 -7.84375,9.3125 -3.355469,1.8125 -7.273437,2.71875 -11.75,2.71875 -4.199219,0 -8.140625,-0.792969 -11.828125,-2.375 -3.679688,-1.582031 -6.917969,-3.910156 -9.71875,-6.984375 -2.792969,-3.082031 -5.007812,-6.816406 -6.640625,-11.203125 -1.636719,-4.382813 -2.453125,-9.375 -2.453125,-14.96875 V -35.8125 c 0,-5.507812 0.789062,-10.453125 2.375,-14.828125 1.59375,-4.382813 3.738281,-8.113281 6.4375,-11.1875 2.707031,-3.082031 5.851562,-5.441406 9.4375,-7.078125 3.59375,-1.632812 7.441406,-2.453125 11.546875,-2.453125 4.945313,0 8.9375,0.84375 11.96875,2.53125 3.03125,1.679687 5.429687,4.289063 7.203125,7.828125 h 2.515625 v -8.390625 h 17.625 v 48.40625 c 0,2.804687 1.257813,4.203125 3.78125,4.203125 h 2.65625 V 0 h -12.03125 c -3.167969,0 -5.757813,-0.929688 -7.765625,-2.796875 -2,-1.863281 -3,-4.289063 -3,-7.28125 z m -15.671875,-4.75 c 5.125,0 9.222656,-1.703125 12.296875,-5.109375 3.082031,-3.40625 4.625,-8.046875 4.625,-13.921875 v -1.671875 c 0,-5.875 -1.542969,-10.515625 -4.625,-13.921875 -3.074219,-3.40625 -7.171875,-5.109375 -12.296875,-5.109375 -5.136719,0 -9.246094,1.703125 -12.328125,5.109375 -3.074219,3.40625 -4.609375,8.046875 -4.609375,13.921875 v 1.671875 c 0,5.875 1.535156,10.515625 4.609375,13.921875 3.082031,3.40625 7.191406,5.109375 12.328125,5.109375 z m 0,0"
           id="path13" />
      </g>
    </g>
  </g>
  <g
     fill="#ffffff"
     fill-opacity="1"
     id="g19"
     transform="translate(-400.79816,-361.89106)">
    <g
       transform="translate(796.43762,465.14106)"
       id="g18">
      <g
         id="g17">
        <path
           d="m 12.171875,-16.78125 h 23.5 V -52.609375 H 13.84375 v -16.78125 h 39.453125 v 52.609375 h 20.15625 V 0 h -61.28125 z m 45.46875,-73.171875 c 0,1.867187 -0.351563,3.617187 -1.046875,5.25 -0.699219,1.625 -1.65625,3.023437 -2.875,4.1875 -1.210938,1.167969 -2.632812,2.101563 -4.265625,2.796875 -1.625,0.699219 -3.328125,1.046875 -5.109375,1.046875 -1.867188,0 -3.589844,-0.347656 -5.171875,-1.046875 -1.585937,-0.695312 -2.984375,-1.628906 -4.203125,-2.796875 -1.210938,-1.164063 -2.164062,-2.5625 -2.859375,-4.1875 -0.699219,-1.632813 -1.046875,-3.382813 -1.046875,-5.25 0,-1.863281 0.347656,-3.613281 1.046875,-5.25 0.695313,-1.632813 1.648437,-3.035156 2.859375,-4.203125 1.21875,-1.16406 2.617188,-2.09766 4.203125,-2.79688 1.582031,-0.69531 3.304687,-1.04687 5.171875,-1.04687 1.78125,0 3.484375,0.35156 5.109375,1.04687 1.632813,0.69922 3.054687,1.63282 4.265625,2.79688 1.21875,1.167969 2.175781,2.570312 2.875,4.203125 0.695312,1.636719 1.046875,3.386719 1.046875,5.25 z m 0,0"
           id="path16" />
      </g>
    </g>
  </g>
  <g
     fill="#ffffff"
     fill-opacity="1"
     id="g22"
     transform="translate(-400.79816,-361.89106)">
    <g
       transform="translate(876.17941,465.14106)"
       id="g21">
      <g
         id="g20">
        <path
           d="M 80.59375,0 H 62.953125 v -48.6875 c 0,-1.957031 -0.492187,-3.425781 -1.46875,-4.40625 -0.980469,-0.976562 -2.261719,-1.46875 -3.84375,-1.46875 -1.867187,0 -3.335937,0.5625 -4.40625,1.6875 -1.074219,1.117188 -1.609375,2.792969 -1.609375,5.03125 V 0 H 34 v -48.6875 c 0,-1.957031 -0.539062,-3.425781 -1.609375,-4.40625 -1.074219,-0.976562 -2.355469,-1.46875 -3.84375,-1.46875 -1.6875,0 -3.089844,0.5625 -4.203125,1.6875 -1.117188,1.117188 -1.671875,2.792969 -1.671875,5.03125 V 0 H 5.03125 v -69.390625 h 17.640625 v 6.71875 H 25.1875 c 0.550781,-2.519531 1.828125,-4.597656 3.828125,-6.234375 2.007813,-1.632812 4.648437,-2.453125 7.921875,-2.453125 3.070312,0 5.679688,0.820313 7.828125,2.453125 2.144531,1.636719 3.59375,3.714844 4.34375,6.234375 H 51.625 c 0.75,-2.519531 2.3125,-4.597656 4.6875,-6.234375 2.375,-1.632812 5.335938,-2.453125 8.890625,-2.453125 4.65625,0 8.382813,1.5625 11.1875,4.6875 2.800781,3.125 4.203125,7.445313 4.203125,12.953125 z m 0,0"
           id="path19" />
      </g>
    </g>
  </g>
  <g
     fill="#00d5e3"
     fill-opacity="1"
     id="g25"
     transform="translate(-400.79816,-361.89106)">
    <g
       transform="translate(944.19147,465)"
       id="g24">
      <g
         id="g23">
        <path
           d="m 64.5625,-13.046875 c 0,2.148437 -0.40625,4.164063 -1.21875,6.046875 -0.804688,1.875 -1.902344,3.484375 -3.296875,4.828125 -1.398437,1.34375 -3.03125,2.414063 -4.90625,3.21875 -1.875,0.800781 -3.835937,1.203125 -5.875,1.203125 -2.148437,0 -4.132813,-0.402344 -5.953125,-1.203125 -1.824219,-0.804687 -3.433594,-1.875 -4.828125,-3.21875 -1.398437,-1.34375 -2.5,-2.953125 -3.3125,-4.828125 -0.804687,-1.882812 -1.203125,-3.898438 -1.203125,-6.046875 0,-2.144531 0.398438,-4.15625 1.203125,-6.03125 0.8125,-1.875 1.914063,-3.484375 3.3125,-4.828125 1.394531,-1.34375 3.003906,-2.414062 4.828125,-3.21875 1.820312,-0.8125 3.804688,-1.21875 5.953125,-1.21875 2.039063,0 4,0.40625 5.875,1.21875 1.875,0.804688 3.507813,1.875 4.90625,3.21875 1.394531,1.34375 2.492187,2.953125 3.296875,4.828125 0.8125,1.875 1.21875,3.886719 1.21875,6.03125 z m 0,0"
           id="path22" />
      </g>
    </g>
  </g>
</svg>
